<svg width="25" height="30" viewBox="0 0 25 30" fill="none" xmlns="http://www.w3.org/2000/svg">
<path d="M20.6457 15.9158C20.6603 14.8119 20.9606 13.7296 21.5188 12.7695C22.0769 11.8094 22.8748 11.0027 23.8381 10.4245C23.2261 9.57123 22.4188 8.86903 21.4803 8.37367C20.5417 7.8783 19.4978 7.60341 18.4314 7.57084C16.1566 7.33771 13.9512 8.89979 12.792 8.89979C11.6104 8.89979 9.82562 7.59399 7.9037 7.63259C6.66056 7.6718 5.44902 8.02473 4.38713 8.65699C3.32524 9.28925 2.44921 10.1793 1.84439 11.2403C-0.775467 15.6688 1.17872 22.1772 3.68837 25.7569C4.94401 27.5097 6.41148 29.4677 8.33166 29.3983C10.2107 29.3222 10.9124 28.2285 13.1805 28.2285C15.4276 28.2285 16.086 29.3983 18.0452 29.3541C20.0614 29.3222 21.3318 27.5935 22.5434 25.824C23.4455 24.5751 24.1398 23.1947 24.6003 21.734C23.4289 21.2503 22.4293 20.4407 21.726 19.406C21.0228 18.3714 20.6471 17.1575 20.6457 15.9158Z" fill="white"/>
<path d="M16.9453 5.21641C18.0447 3.92796 18.5863 2.27188 18.4551 0.599854C16.7756 0.772076 15.2241 1.55577 14.1099 2.79478C13.5652 3.40007 13.1479 4.10425 12.8821 4.86706C12.6162 5.62987 12.507 6.43636 12.5606 7.24042C13.4007 7.24886 14.2317 7.07109 14.9912 6.7205C15.7508 6.36991 16.4189 5.85563 16.9453 5.21641Z" fill="white"/>
</svg>
