<svg width="49" height="48" viewBox="0 0 49 48" fill="none" xmlns="http://www.w3.org/2000/svg">
<path d="M38.5 8.5H10.5C7.466 8.5 5 10.966 5 14V34C5 37.034 7.466 39.5 10.5 39.5H38.5C41.534 39.5 44 37.034 44 34V14C44 10.966 41.534 8.5 38.5 8.5ZM10.5 11.5H38.5C39.878 11.5 41 12.622 41 14V18.5H8V14C8 12.622 9.122 11.5 10.5 11.5ZM38.5 36.5H10.5C9.122 36.5 8 35.378 8 34V21.5H41V34C41 35.378 39.878 36.5 38.5 36.5Z" fill="#01081B"/>
<path d="M18 32C18 32.828 17.328 33.5 16.5 33.5H12.5C11.672 33.5 11 32.828 11 32C11 31.172 11.672 30.5 12.5 30.5H16.5C17.328 30.5 18 31.172 18 32ZM26.5 30.5H22.5C21.672 30.5 21 31.172 21 32C21 32.828 21.672 33.5 22.5 33.5H26.5C27.328 33.5 28 32.828 28 32C28 31.172 27.328 30.5 26.5 30.5Z" fill="#2E68FD"/>
</svg>
