<svg width="26" height="30" viewBox="0 0 26 30" fill="none" xmlns="http://www.w3.org/2000/svg">
<path d="M12.3659 14.3542L0.707642 27.0073C0.708737 27.0095 0.708736 27.0129 0.709831 27.0151C1.06789 28.389 2.29427 29.4001 3.75059 29.4001C4.33312 29.4001 4.87952 29.2389 5.34817 28.9567L5.3854 28.9343L18.5076 21.1913L12.3659 14.3542Z" fill="#EA4335"/>
<path d="M24.1593 12.1993L24.1484 12.1914L18.4829 8.83333L12.1003 14.6414L18.5059 21.1897L24.1407 17.8652C25.1284 17.3187 25.7996 16.2539 25.7996 15.0266C25.7996 13.8061 25.1382 12.7468 24.1593 12.1993Z" fill="#FBBC04"/>
<path d="M0.706933 2.99195C0.636854 3.25621 0.599625 3.5339 0.599625 3.82056V26.1796C0.599625 26.4662 0.636854 26.7439 0.708028 27.0071L12.766 14.6776L0.706933 2.99195Z" fill="#4285F4"/>
<path d="M12.4519 15L18.4852 8.83134L5.37833 1.06032C4.90201 0.768064 4.34576 0.600104 3.75118 0.600104C2.29486 0.600104 1.06629 1.61347 0.708232 2.98852C0.708232 2.98964 0.707138 2.99076 0.707138 2.99187L12.4519 15Z" fill="#34A853"/>
</svg>
