<svg width="125" height="410" viewBox="0 0 125 410" fill="none" xmlns="http://www.w3.org/2000/svg">
<g opacity="0.08">
<path d="M103.874 230.447C72.5274 210.082 42.9755 197.935 9.48732 161.661C4.40803 178.787 2.42952 197.042 3.8063 214.924C25.8606 208.856 63.5091 205.127 103.874 230.447Z" fill="url(#paint0_linear_1_1440)"/>
<path d="M122.612 393.772C122.318 397.816 121.361 401.779 119.47 405.582C135.351 385.916 149.589 364.466 156.117 340.5C162.645 316.534 160.651 289.612 146.036 269.086C142.416 264.003 138.122 259.024 133.429 254.272C130.953 251.795 128.474 249.449 125.997 247.227C125.682 246.947 125.373 246.663 125.056 246.386C125.028 246.361 125 246.336 124.972 246.312C118.776 240.888 112.199 235.921 105.71 231.646C105.096 231.241 104.484 230.846 103.872 230.448C63.5059 205.128 25.8581 208.856 3.80381 214.925L3.80386 214.926C122.2 300.533 126.69 367.67 122.612 393.772Z" fill="url(#paint1_linear_1_1440)"/>
<path d="M3.80518 214.926C3.80518 214.926 56.0182 254.936 94.8984 333.227C94.8991 333.229 94.8998 333.23 94.9005 333.232C104.766 341.636 112.544 352.102 116.646 363.777C120.069 373.524 123.332 383.893 122.614 393.773C126.692 367.67 122.202 300.533 3.80518 214.926Z" fill="url(#paint2_linear_1_1440)"/>
<path d="M3.80518 214.926C6.19813 246 18.7332 275.942 42.7999 296.844C54.0697 306.631 78.2686 320.637 90.3048 329.571C91.8818 330.742 93.4138 331.964 94.9012 333.232C94.9005 333.23 94.8998 333.229 94.899 333.227C56.0182 254.936 3.80518 214.926 3.80518 214.926Z" fill="url(#paint3_linear_1_1440)"/>
<path d="M180.217 217.242C104.471 148.012 69.2329 53.291 60.0901 25.4507C59.027 22.8558 58.1942 20.2179 57.6307 17.5463C57.6135 17.4869 57.603 17.4482 57.603 17.4482C57.603 17.4482 57.6096 17.4514 57.6123 17.4526C56.4238 11.7553 56.464 5.90816 58.1923 0.00231934C58.1923 0.00231934 -21.4697 81.559 112.503 223.114C112.503 223.114 112.481 223.104 112.462 223.096C124.315 231.516 135.655 240.479 145.651 250.828C146.158 251.353 146.657 251.886 147.157 252.419C152.632 236.208 164.855 224.969 180.217 217.242Z" fill="url(#paint4_linear_1_1440)"/>
<path d="M149.038 106.576C130.173 92.726 103.214 74.1719 85.555 58.3099C75.1643 48.9764 65.105 37.6885 60.0911 25.4491C69.2339 53.2894 104.472 148.011 180.218 217.241C193.285 210.668 208.619 206.634 223.999 204.244C218.454 158.606 190.622 137.104 149.038 106.576Z" fill="url(#paint5_linear_1_1440)"/>
<path d="M58.1922 0.00231934C34.0343 11.6223 14.9074 32.2949 5.92893 56.4877C-3.04954 80.6811 -1.78058 108.129 9.39532 131.489C22.285 158.429 46.9141 178.607 72.2235 195.957C85.5335 205.082 99.3146 213.755 112.462 223.096C112.481 223.104 112.503 223.114 112.503 223.114C-21.4697 81.559 58.1922 0.00231934 58.1922 0.00231934Z" fill="url(#paint6_linear_1_1440)"/>
</g>
<defs>
<linearGradient id="paint0_linear_1_1440" x1="3.07104" y1="197.771" x2="102.578" y2="194.21" gradientUnits="userSpaceOnUse">
<stop stop-color="#B974FF"/>
<stop offset="0.6071" stop-color="#932EFA"/>
<stop offset="1" stop-color="#6104C0"/>
</linearGradient>
<linearGradient id="paint1_linear_1_1440" x1="7.21507" y1="310.267" x2="159.38" y2="304.821" gradientUnits="userSpaceOnUse">
<stop stop-color="#6104C0"/>
<stop offset="0.3929" stop-color="#932EFA"/>
<stop offset="1" stop-color="#B974FF"/>
</linearGradient>
<linearGradient id="paint2_linear_1_1440" x1="7.06978" y1="306.148" x2="120.758" y2="302.08" gradientUnits="userSpaceOnUse">
<stop stop-color="#6104C0"/>
<stop offset="0.3929" stop-color="#932EFA"/>
<stop offset="1" stop-color="#B974FF"/>
</linearGradient>
<linearGradient id="paint3_linear_1_1440" x1="51.5196" y1="334.621" x2="47.6399" y2="213.522" gradientUnits="userSpaceOnUse">
<stop stop-color="#6104C0"/>
<stop offset="0.3929" stop-color="#932EFA"/>
<stop offset="1" stop-color="#B974FF"/>
</linearGradient>
<linearGradient id="paint4_linear_1_1440" x1="-0.000800433" y1="126.21" x2="225.005" y2="126.21" gradientUnits="userSpaceOnUse">
<stop stop-color="#0437B9"/>
<stop offset="0.5612" stop-color="#2E68FD"/>
<stop offset="1" stop-color="#5E8BFC"/>
</linearGradient>
<linearGradient id="paint5_linear_1_1440" x1="110.447" y1="132.107" x2="169.166" y2="96.2761" gradientUnits="userSpaceOnUse">
<stop stop-color="#5E8BFC"/>
<stop offset="0.2004" stop-color="#6B94FB"/>
<stop offset="0.4235" stop-color="#2E68FD"/>
<stop offset="1" stop-color="#0437B9"/>
</linearGradient>
<linearGradient id="paint6_linear_1_1440" x1="18.7641" y1="147.851" x2="113.234" y2="90.2052" gradientUnits="userSpaceOnUse">
<stop stop-color="#0437B9"/>
<stop offset="0.3929" stop-color="#2E68FD"/>
<stop offset="1" stop-color="#5E8BFC"/>
</linearGradient>
</defs>
</svg>
